<?xml version="1.0" encoding="UTF-8"?>
<svg width="40" height="40" viewBox="0 0 40 40" fill="none" xmlns="http://www.w3.org/2000/svg">
    <path d="M20 5C14 5 9 10 9 16C9 22 14 27 20 27C26 27 31 22 31 16C31 10 26 5 20 5ZM20 25C15.1 25 11 20.9 11 16C11 11.1 15.1 7 20 7C24.9 7 29 11.1 29 16C29 20.9 24.9 25 20 25Z" fill="#2d5a27"/>
    <path d="M20 9C16.2 9 13 12.2 13 16C13 19.8 16.2 23 20 23C23.8 23 27 19.8 27 16C27 12.2 23.8 9 20 9ZM20 21C17.3 21 15 18.7 15 16C15 13.3 17.3 11 20 11C22.7 11 25 13.3 25 16C25 18.7 22.7 21 20 21Z" fill="#2d5a27"/>
    <circle cx="20" cy="16" r="3" fill="#2d5a27"/>
</svg> 